<svg width="37" height="30" viewBox="0 0 37 30" fill="none" xmlns="http://www.w3.org/2000/svg">
<path d="M19.4905 25.2385H25.9224C26.439 24.7247 27.0056 24.1904 27.581 23.6474C28.7875 22.5054 30.0469 21.3135 31.3415 19.8223C32.821 18.1167 32.9796 17.5266 33.4287 15.8563C33.5139 15.5422 33.6078 15.1899 33.7311 14.7525L34.5002 12.0488L34.509 12.0194C34.92 10.8158 34.9523 10.0203 34.782 9.56233C34.7292 9.42142 34.6617 9.32748 34.5824 9.27758C34.5208 9.23648 34.4386 9.2218 34.3534 9.23061C34.1538 9.25116 33.9278 9.37739 33.7223 9.60343L31.4384 15.0431C31.4178 15.093 31.3885 15.14 31.3562 15.1811C31.2211 15.4247 31.0391 15.6625 30.8043 15.8886L26.7502 20.4035C26.5301 20.6501 26.1514 20.6707 25.9077 20.4505C25.6611 20.2303 25.6406 19.8516 25.8607 19.608L29.9148 15.0901C29.9324 15.0695 29.95 15.049 29.9706 15.0314C30.3904 14.6321 30.5225 14.2006 30.4491 13.8865C30.4256 13.7896 30.3845 13.7074 30.3258 13.6516C30.27 13.6017 30.1966 13.5665 30.1056 13.5577C29.7445 13.5195 29.2132 13.7867 28.5644 14.5529C28.5468 14.5734 28.5263 14.594 28.5057 14.6145L26.9352 16.0001L26.9264 16.0089C25.2266 17.6176 24.4957 17.9993 23.1629 18.695C22.884 18.8418 22.5787 19.0003 22.2 19.2058C22.0503 19.288 21.9035 19.3878 21.7597 19.4964C21.607 19.6138 21.4603 19.7342 21.3223 19.8516C20.6177 20.4446 20.2479 20.9261 20.0365 21.4574C19.8163 22.0093 19.7371 22.6815 19.6284 23.6033C19.5844 23.9761 19.5521 24.3431 19.5257 24.71C19.5081 24.8891 19.4993 25.0653 19.4905 25.2385ZM17.9963 2.56973C19.194 1.32209 20.0306 0.244728 21.8742 0.0304291C25.3323 -0.365877 28.5145 3.1774 26.7678 6.66489C26.2688 7.65713 25.2589 8.84017 24.1375 9.99974C22.9075 11.2738 21.5483 12.5185 20.5943 13.4637L17.9963 16.0412L15.8503 13.9745C13.267 11.4852 9.05441 8.3558 8.91643 4.47493C8.81956 1.75656 10.9625 0.0157511 13.4314 0.0480427C15.636 0.0744631 16.5607 1.17238 17.9963 2.56973ZM16.5725 25.2385H10.1376C9.62098 24.7247 9.05441 24.1904 8.47903 23.6474C7.27249 22.5054 6.01312 21.3135 4.71852 19.8223C3.23898 18.1167 3.08045 17.5266 2.63131 15.8563C2.54617 15.5422 2.45223 15.1899 2.32894 14.7525L1.55981 12.0488L1.551 12.0194C1.14002 10.8158 1.10773 10.0203 1.27799 9.56233C1.33083 9.42142 1.39835 9.32748 1.47761 9.27758C1.53926 9.23648 1.62146 9.2218 1.70659 9.23061C1.91208 9.24822 2.13813 9.37739 2.34362 9.60049L4.62752 15.0402C4.64807 15.0901 4.67742 15.137 4.70971 15.1781C4.84475 15.4218 5.02676 15.6596 5.26161 15.8856L9.31274 20.4035C9.53291 20.6501 9.9116 20.6707 10.1553 20.4505C10.4018 20.2303 10.4224 19.8516 10.2022 19.608L6.14816 15.0871C6.13054 15.0666 6.11293 15.046 6.09238 15.0284C5.67259 14.6292 5.54049 14.1976 5.61388 13.8835C5.63736 13.7867 5.67846 13.7045 5.73717 13.6487C5.79295 13.5988 5.86634 13.5636 5.95734 13.5548C6.31842 13.5166 6.8527 13.7837 7.49854 14.5499C7.51615 14.5705 7.5367 14.591 7.55725 14.6116L9.1278 15.9972L9.1366 16.006C10.8363 17.6147 11.5673 17.9963 12.9 18.6921C13.1789 18.8388 13.4842 18.9974 13.8629 19.2029C14.0126 19.285 14.1594 19.3849 14.3033 19.4935C14.4559 19.6109 14.6027 19.7313 14.7407 19.8487C15.4452 20.4417 15.8151 20.9231 16.0265 21.4545C16.2466 22.0064 16.3259 22.6786 16.4345 23.6004C16.4785 23.9732 16.5108 24.3402 16.5373 24.7071C16.5549 24.8891 16.5637 25.0653 16.5725 25.2385ZM8.64049 25.4439C8.54948 25.5496 8.49371 25.6876 8.49371 25.8373V29.4011C8.49371 29.7329 8.76378 30 9.09257 30H17.189C17.5207 30 17.7878 29.7329 17.7878 29.4011V25.805C17.7878 25.4234 17.7643 25.0124 17.7379 24.6308C17.7115 24.2403 17.6763 23.8528 17.6322 23.4683C17.5148 22.4614 17.4267 21.7245 17.1449 21.0171C16.8543 20.292 16.3875 19.6667 15.5215 18.9357C15.363 18.8007 15.2016 18.6656 15.0313 18.5394C14.8522 18.4044 14.6585 18.2752 14.4412 18.1548C14.089 17.964 13.7602 17.7908 13.4607 17.6323C12.2278 16.9865 11.5526 16.6342 9.96444 15.1312C9.9527 15.1194 9.93802 15.1077 9.92628 15.0989L8.3939 13.7456C7.45744 12.6506 6.54153 12.2866 5.83992 12.3629H5.83698C5.49352 12.3981 5.19996 12.5332 4.96511 12.7387L3.41805 9.05154H3.41511C3.39163 8.9987 3.36227 8.94879 3.32411 8.90182C2.89551 8.38809 2.35242 8.08866 1.83282 8.03582C1.47761 8.00059 1.13415 8.07692 0.834717 8.27067C0.549964 8.45561 0.315116 8.7433 0.168336 9.1396C-0.0899975 9.82947 -0.0841262 10.901 0.420797 12.3834L1.18405 15.0695C1.29561 15.457 1.39248 15.8298 1.48349 16.1586C1.98254 18.0227 2.15867 18.6833 3.82316 20.5973C5.14125 22.115 6.42998 23.3362 7.6688 24.5075C7.98878 24.8216 8.3117 25.1298 8.64049 25.4439ZM9.78537 26.4362C9.86463 26.4538 9.94683 26.4538 10.029 26.4362H16.5872V28.8023H9.69143V26.4362H9.78537ZM27.4225 25.4439C27.5135 25.5496 27.5693 25.6876 27.5693 25.8373V29.4011C27.5693 29.7329 27.3021 30 26.9704 30H18.8769C18.5452 30 18.2781 29.7329 18.2781 29.4011V25.805C18.2781 25.7845 18.2781 25.761 18.281 25.7404C18.2898 25.3559 18.3045 24.9831 18.328 24.6308C18.3544 24.2403 18.3896 23.8528 18.4337 23.4683C18.5511 22.4614 18.6392 21.7245 18.921 21.0171C19.2116 20.292 19.6784 19.6667 20.5444 18.9357C20.7029 18.8007 20.8643 18.6656 21.0346 18.5394C21.2137 18.4044 21.4074 18.2752 21.6247 18.1548C21.9769 17.964 22.3057 17.7908 22.6051 17.6323C23.8381 16.9865 24.5133 16.6342 26.1015 15.1312C26.1132 15.1194 26.1279 15.1077 26.1396 15.0989L27.672 13.7456C28.6085 12.6506 29.5244 12.2866 30.226 12.3629H30.2289C30.5724 12.3981 30.8659 12.5332 31.1008 12.7387L32.6479 9.05154H32.6508C32.6743 8.9987 32.7036 8.94879 32.7418 8.90182C33.1704 8.38809 33.7135 8.08866 34.2331 8.03582C34.5883 8.00059 34.9317 8.07692 35.2312 8.27067C35.5159 8.45561 35.7508 8.7433 35.8976 9.1396C36.1559 9.82947 36.15 10.901 35.6451 12.3834L34.8818 15.0695C34.7703 15.457 34.6734 15.8298 34.5824 16.1586C34.0834 18.0227 33.9072 18.6833 32.2427 20.5973C30.9246 22.115 29.6359 23.3362 28.3971 24.5075C28.0742 24.8216 27.7513 25.1298 27.4225 25.4439ZM26.2776 26.4362C26.1983 26.4538 26.1161 26.4538 26.0339 26.4362H19.4758V28.8023H26.3715V26.4362H26.2776Z" fill="#498240"/>
</svg>
