<svg width="30" height="30" viewBox="0 0 30 30" fill="none" xmlns="http://www.w3.org/2000/svg">
<path fill-rule="evenodd" clip-rule="evenodd" d="M10.7883 18.801C12.1653 22.8539 17.9198 23.0028 19.2138 18.801C20.7372 20.1707 25.2442 20.4466 26.9214 21.3817C27.4512 21.6771 27.9322 22.0531 28.3155 22.5633C28.899 23.3348 29.2579 24.3431 29.3556 25.6249L29.7047 28.4961C29.6192 29.4018 29.1065 29.9243 28.0933 30H1.90628C0.89552 29.9219 0.380373 29.4018 0.294922 28.4961L0.64405 25.6249C0.741708 24.3456 1.1006 23.3373 1.68411 22.5633C2.06986 22.0531 2.54839 21.6771 3.07818 21.3817C4.7579 20.4466 9.26483 20.1731 10.7883 18.801ZM22.6904 23.1249H23.5718C23.7378 23.1249 23.8721 23.2591 23.8721 23.4252V24.7411H25.188C25.3516 24.7411 25.4883 24.8754 25.4883 25.0414V25.9228C25.4883 26.0863 25.354 26.2231 25.188 26.2231H23.8721V27.539C23.8721 27.7026 23.7378 27.8393 23.5718 27.8393H22.6904C22.5268 27.8393 22.3901 27.705 22.3901 27.539V26.2231H21.0741C20.9106 26.2231 20.7738 26.0888 20.7738 25.9228V25.0414C20.7738 24.8778 20.9081 24.7411 21.0741 24.7411H22.3901V23.4252C22.3901 23.2591 22.5244 23.1249 22.6904 23.1249ZM9.73359 8.98884C9.4455 9.00104 9.22577 9.05964 9.07684 9.15974C8.99139 9.21589 8.92791 9.28914 8.88885 9.37703C8.8449 9.47469 8.82293 9.59188 8.82781 9.72616C8.84002 10.1217 9.04754 10.6417 9.44794 11.2374L9.45282 11.2472L10.7566 13.32C11.279 14.1501 11.8259 14.9973 12.5071 15.6198C13.1614 16.218 13.9549 16.6233 15.0047 16.6257C16.1424 16.6282 16.9725 16.2082 17.6488 15.5759C18.3519 14.9191 18.9037 14.0182 19.4506 13.1173L20.9179 10.7003C21.1913 10.0753 21.2914 9.6578 21.228 9.41365C21.1913 9.26716 21.0302 9.19636 20.7543 9.18171C20.6957 9.17927 20.6371 9.17927 20.5761 9.17927C20.5102 9.18171 20.4418 9.18659 20.371 9.19148C20.3319 9.19392 20.2929 9.19148 20.2587 9.18415C20.1293 9.19148 19.9926 9.18171 19.8559 9.16218L20.3588 6.93801C16.6283 7.5264 13.8401 4.75535 9.89717 6.3838L10.1828 9.00837C10.0217 9.01569 9.87275 9.01081 9.73359 8.98884ZM21.2573 8.52252C21.6186 8.63238 21.8505 8.86188 21.9457 9.23298C22.0507 9.64315 21.936 10.2218 21.5893 11.0128C21.582 11.0275 21.5746 11.0421 21.5673 11.0543L20.0805 13.5006C19.5092 14.443 18.9281 15.3879 18.1517 16.113C17.3485 16.865 16.3597 17.3655 15.0047 17.363C13.74 17.3606 12.7903 16.8772 12.009 16.1643C11.2546 15.4758 10.6784 14.5847 10.1315 13.7155L8.82781 11.6427C8.35172 10.9322 8.1027 10.2828 8.08805 9.75057C8.08072 9.4991 8.12467 9.27204 8.215 9.07185C8.31266 8.86188 8.46159 8.6861 8.66179 8.55182C8.75701 8.48834 8.86199 8.43463 8.97674 8.39068C8.89129 7.26761 8.85955 5.85157 8.9157 4.66502C8.945 4.38425 8.99871 4.10348 9.07684 3.82028C9.40888 2.63129 10.2439 1.67424 11.279 1.01504C11.6428 0.783105 12.0432 0.59023 12.4631 0.43886C14.9681 -0.46692 18.286 0.0262538 20.0634 1.94768C20.7861 2.73139 21.2402 3.76901 21.3378 5.1411L21.2573 8.52252Z" fill="white"/>
</svg>
