<svg width="30" height="30" viewBox="0 0 30 30" fill="none" xmlns="http://www.w3.org/2000/svg">
<path d="M3.44904 19.4227L5.32294 21.2612L3.14526 23.3966L1.33511 21.6206L-3.09071e-07 22.9293L7.20685 30L8.54071 28.6913L6.73056 26.9154L8.90824 24.7788L10.7821 26.6173L26.9835 10.722L27.1385 4.10016L30 1.29272L29.8575 -1.11989e-06L26.4097 3.38266L19.6604 3.53475L3.44904 19.4227ZM5.58422 19.4227L13.8149 11.3475L19.0003 16.435L16.9077 18.4906L14.3074 15.9395L13.2074 17.0188L15.8076 19.5699L13.8699 21.471L11.2697 18.9199L10.1696 19.9992L12.7698 22.5503L10.7771 24.5053L5.58422 19.4227Z" fill="#498240"/>
</svg>
