<svg width="33" height="30" viewBox="0 0 33 30" fill="none" xmlns="http://www.w3.org/2000/svg">
<path fill-rule="evenodd" clip-rule="evenodd" d="M20.1927 14.669L20.8616 15.3733C21.0374 15.5583 21.0299 15.854 20.8448 16.0297L20.2778 16.5682C20.4252 16.8604 20.5328 17.171 20.5977 17.4917L21.3131 17.5097C21.569 17.5159 21.7727 17.7308 21.7659 17.9861L21.7417 18.9568C21.7348 19.2121 21.5206 19.4158 21.2653 19.409L20.484 19.3891C20.3808 19.6994 20.2369 19.9947 20.0561 20.2673L20.5505 20.7871C20.7262 20.9722 20.7188 21.2678 20.5337 21.4436L19.8294 22.1125C19.6443 22.2882 19.3487 22.2808 19.1729 22.0957L18.6345 21.5293C18.3426 21.6758 18.0308 21.7839 17.7109 21.8485L17.6923 22.5646C17.6861 22.8199 17.4718 23.0236 17.216 23.0174L16.2458 22.9925C15.9906 22.9857 15.7869 22.7714 15.7937 22.5162L15.8136 21.7348C15.5032 21.6317 15.2079 21.4878 14.9354 21.3069L14.4156 21.8007C14.2305 21.9771 13.9349 21.969 13.7585 21.7839L13.0902 21.0802C12.9138 20.8952 12.9213 20.5995 13.107 20.4238L13.6734 19.8853C13.526 19.5932 13.4184 19.2825 13.3535 18.9618L12.6381 18.9438C12.3828 18.9376 12.1785 18.7227 12.1847 18.4674L12.2102 17.4967C12.2164 17.2414 12.4306 17.0377 12.6859 17.0446L13.4672 17.0644C13.5703 16.7545 13.7144 16.4576 13.8951 16.1856L13.4014 15.6664C13.2256 15.4807 13.2331 15.1857 13.4181 15.0099L14.1218 14.3411C14.3069 14.1647 14.6025 14.1721 14.7783 14.3578L15.3174 14.9242C15.6055 14.7789 15.9154 14.6702 16.2403 14.6044L16.2589 13.8889C16.2651 13.6337 16.4794 13.43 16.7352 13.4362L17.7054 13.461C17.9606 13.4678 18.1643 13.6821 18.1581 13.9374L18.1382 14.7187C18.4481 14.8211 18.7444 14.9652 19.0164 15.146L19.5356 14.6528C19.7213 14.4764 20.017 14.4845 20.1933 14.6696L20.1927 14.669ZM7.14474 14.7982C6.97147 15.1602 6.5361 15.3124 6.1734 15.1391C5.81131 14.9658 5.65915 14.533 5.83243 14.1684C6.21563 13.3654 6.68764 12.612 7.23418 11.9195C7.78259 11.224 8.40643 10.5914 9.09427 10.0333C9.40667 9.77808 9.86563 9.82591 10.1172 10.1377C10.3724 10.4501 10.3246 10.909 10.0122 11.1612C9.40667 11.6549 8.85516 12.2108 8.37508 12.8194C7.89499 13.4312 7.48322 14.0926 7.14474 14.7982ZM14.0665 1.95265C15.4987 0.183233 17.1489 -0.779419 18.3885 0.794983C19.8133 0.869511 20.4238 3.03144 19.4437 4.09781C19.5139 4.09719 19.5804 4.11148 19.6369 4.14253C19.712 4.1829 19.7685 4.24935 19.7971 4.34376C19.8555 4.5338 19.7735 4.72385 19.7313 4.9083C19.6661 5.19275 19.5934 5.50577 19.2692 5.48838L19.217 5.48279C19.2052 6.07156 18.9183 6.34235 18.5419 6.69573C18.6134 6.80007 18.6854 6.90565 18.7636 7.00627C18.814 7.07024 18.8469 7.11309 18.9059 7.16278C19.553 7.70559 20.7709 7.82359 21.4572 8.20679C21.6789 8.32976 21.8795 8.48689 22.0404 8.69991C22.4435 9.23217 22.5087 9.69238 22.5894 10.3339C22.6 10.378 22.6062 10.4221 22.6062 10.4668C22.6062 10.5557 22.5341 10.6277 22.446 10.6277H11.763C11.6748 10.6277 11.6028 10.5557 11.6028 10.4668C11.6028 10.4215 11.6096 10.3762 11.6201 10.3321C11.7015 9.69114 11.7661 9.23155 12.1685 8.69991C12.33 8.48689 12.53 8.33038 12.7517 8.20679C13.4306 7.82794 14.5895 7.70807 15.2801 7.18141C15.3937 6.98515 15.4844 6.7479 15.5621 6.53488C15.2882 6.28148 15.0782 6.00697 15.0304 5.48465L14.9981 5.48528C14.9217 5.48465 14.8484 5.46726 14.7808 5.42814C14.6298 5.34243 14.5472 5.17847 14.5069 4.99091C14.459 4.76732 14.4019 4.12266 14.71 3.9972C14.6721 3.29105 14.7919 2.17251 14.0665 1.95265ZM18.3624 6.86591C17.9904 7.21246 17.5842 7.38077 17.1725 7.38139C16.7421 7.38139 16.3098 7.19631 15.9086 6.8392L15.7583 6.70815C15.6763 6.92491 15.5739 7.18389 15.4465 7.37456C16.1229 8.74525 18.1208 8.79307 18.768 7.38263C18.6059 7.21743 18.4823 7.04167 18.3624 6.86591ZM18.1966 2.12034C17.8699 2.44888 17.5252 2.54391 17.1861 2.5731C17.0868 2.59111 16.9886 2.60291 16.8918 2.61533C16.5669 2.65508 16.2421 2.69545 15.8123 2.99232C15.608 3.13392 15.472 3.30533 15.4031 3.50407C15.3329 3.70592 15.3285 3.94255 15.3875 4.21085C15.3925 4.23631 15.3913 4.26364 15.3819 4.29034C15.3552 4.36363 15.2733 4.40152 15.1994 4.37481C15.0851 4.3332 14.8385 4.20153 14.777 4.3481C14.7565 4.50337 14.7441 4.73875 14.7851 4.93191C14.8286 5.13499 14.9043 5.24803 15.1211 5.18157L15.1596 5.17536C15.2379 5.1735 15.3031 5.23499 15.3043 5.31386C15.3198 5.95604 15.6055 6.20261 15.9521 6.50134L16.0974 6.62742C16.4465 6.93733 16.8135 7.09756 17.1725 7.09756C17.5228 7.09756 17.8724 6.94478 18.1985 6.6299L18.3457 6.49016C18.7096 6.14857 18.9779 5.89642 18.9264 5.28281C18.9177 5.16605 19.0469 5.08593 19.1462 5.15238C19.186 5.17785 19.2357 5.20269 19.2835 5.20517C19.4033 5.21139 19.4692 4.7549 19.5108 4.63255C19.5363 4.53691 19.5394 4.47045 19.5263 4.42698C19.512 4.38102 19.471 4.37854 19.4288 4.38226C19.3586 4.38909 19.2742 4.42449 19.1953 4.48287C19.1642 4.5102 19.122 4.52324 19.0779 4.51579C19.0595 4.51269 19.0419 4.50599 19.0261 4.49606C19.0103 4.48614 18.9966 4.47318 18.9858 4.45795C18.975 4.44271 18.9673 4.42549 18.9632 4.40728C18.9591 4.38907 18.9586 4.37023 18.9618 4.35183C19.0959 3.57115 19.0344 3.06188 18.868 2.71532C18.7227 2.41162 18.4898 2.22654 18.2376 2.08929L18.1966 2.12034ZM24.193 18.5451C25.6252 16.775 27.2754 15.813 28.515 17.3868C29.9397 17.4613 30.5502 19.6238 29.5702 20.6896C29.6404 20.689 29.7068 20.7033 29.7634 20.7349C29.8385 20.7753 29.895 20.8418 29.9236 20.9362C29.982 21.1256 29.9006 21.3156 29.8578 21.5001C29.7925 21.7845 29.7205 22.0976 29.3957 22.0808L29.3441 22.0746C29.3317 22.6633 29.0448 22.9341 28.6684 23.2875C28.7398 23.3925 28.8119 23.4974 28.8901 23.598C28.9404 23.662 28.9734 23.7049 29.0324 23.7546C29.6795 24.2974 30.8974 24.4154 31.5837 24.7986C31.806 24.9215 32.006 25.0793 32.1669 25.2917C32.57 25.8239 32.6352 26.2842 32.7159 26.9257C32.7265 26.9698 32.7327 27.0139 32.7327 27.0586C32.7327 27.1474 32.6606 27.2195 32.5724 27.2195H21.8895C21.8013 27.2195 21.7292 27.1474 21.7292 27.0586C21.7292 27.0133 21.7361 26.968 21.7466 26.9239C21.828 26.2829 21.8926 25.8233 22.2957 25.2917C22.4565 25.0793 22.6565 24.9222 22.8782 24.7986C23.557 24.4197 24.7159 24.2999 25.4066 23.7732C25.5202 23.5769 25.6109 23.3397 25.6885 23.1267C25.4153 22.8733 25.2047 22.5994 25.1569 22.0771L25.1246 22.0777C25.0482 22.0764 24.9749 22.059 24.9072 22.0199C24.7563 21.9342 24.6737 21.7703 24.6333 21.5827C24.5855 21.3597 24.5284 20.7151 24.8364 20.5896C24.7985 19.8828 24.9184 18.7643 24.193 18.5451ZM28.4889 23.4577C28.1169 23.8042 27.7113 23.9726 27.2996 23.9732C26.8686 23.9732 26.4363 23.7887 26.0351 23.4316L25.8848 23.2999C25.8028 23.5167 25.7003 23.7757 25.573 23.9663C26.2494 25.337 28.2473 25.3849 28.8945 23.9744C28.7324 23.8092 28.6088 23.6335 28.4889 23.4577ZM28.3231 18.7121C27.9964 19.0407 27.6517 19.1357 27.3126 19.1649C27.2133 19.1829 27.1151 19.1953 27.0182 19.2071C26.6934 19.2475 26.3686 19.2872 25.9388 19.5847C25.7351 19.7263 25.5985 19.8971 25.5295 20.0959C25.4594 20.2977 25.455 20.5343 25.514 20.8026C25.5196 20.8281 25.5177 20.8554 25.5084 20.8821C25.4954 20.9174 25.469 20.9461 25.4349 20.9619C25.4008 20.9777 25.3618 20.9794 25.3265 20.9666C25.2116 20.925 24.965 20.7933 24.9035 20.9399C24.883 21.0952 24.8706 21.3305 24.9116 21.5243C24.9551 21.7268 25.0308 21.8398 25.2476 21.7734L25.2861 21.7671C25.3643 21.7653 25.4296 21.8274 25.4314 21.9056C25.4463 22.5484 25.732 22.7944 26.0792 23.0931L26.2245 23.2192C26.5729 23.5291 26.9406 23.6893 27.2996 23.6893C27.6492 23.6893 27.9989 23.5366 28.325 23.2217L28.4722 23.0826C28.8361 22.7404 29.1044 22.4882 29.0529 21.8746C29.0442 21.7585 29.1733 21.6777 29.2733 21.7442C29.3125 21.7696 29.3628 21.7951 29.41 21.797C29.5298 21.8032 29.5963 21.3467 29.6373 21.2243C29.6627 21.1293 29.6658 21.0622 29.6528 21.0188C29.6385 20.9728 29.5975 20.9703 29.5553 20.974C29.4851 20.9809 29.4013 21.0163 29.3218 21.0747C29.2913 21.102 29.2485 21.1156 29.2044 21.1082C29.1672 21.1017 29.1341 21.0807 29.1124 21.0499C29.0906 21.019 29.0819 20.9808 29.0883 20.9436C29.2224 20.1629 29.1609 19.6537 28.9945 19.3071C28.8491 19.0034 28.6162 18.8189 28.3641 18.6811L28.3231 18.7121ZM3.39785 18.5451C4.83003 16.775 6.4802 15.813 7.71985 17.3868C9.14396 17.4613 9.75446 19.6238 8.77504 20.6896C8.8446 20.689 8.91106 20.7033 8.96819 20.7349C9.04272 20.7753 9.09986 20.8418 9.12843 20.9362C9.18681 21.1256 9.10483 21.3156 9.0626 21.5001C8.99738 21.7845 8.92472 22.0976 8.60052 22.0808L8.54835 22.0746C8.53655 22.6633 8.249 22.9341 7.87325 23.2875C7.94468 23.3925 8.0161 23.4974 8.09497 23.598C8.14466 23.662 8.17758 23.7049 8.2372 23.7546C8.88435 24.2974 10.1023 24.4154 10.7885 24.7986C11.0103 24.9215 11.2109 25.0793 11.3717 25.2917C11.7748 25.8239 11.8394 26.2842 11.9207 26.9257C11.9307 26.9698 11.9375 27.0139 11.9375 27.0586C11.9375 27.1474 11.8655 27.2195 11.7773 27.2195H1.09432C1.00613 27.2195 0.934082 27.1474 0.934082 27.0586C0.934082 27.0133 0.940914 26.968 0.951472 26.9239C1.03221 26.2829 1.09742 25.8233 1.49987 25.2917C1.66135 25.0793 1.86133 24.9222 2.08305 24.7986C2.76126 24.4197 3.92079 24.2999 4.61141 23.7732C4.72507 23.5769 4.81575 23.3397 4.89276 23.1267C4.61949 22.8733 4.40895 22.5994 4.36175 22.0771L4.32945 22.0777C4.25306 22.0764 4.17977 22.059 4.11208 22.0199C3.96054 21.9342 3.87856 21.7703 3.83819 21.5827C3.79037 21.3597 3.73323 20.7151 4.04128 20.5896C4.00339 19.8828 4.12264 18.7643 3.39785 18.5451ZM7.69315 23.4577C7.32175 23.8042 6.91557 23.9726 6.5038 23.9732C6.0734 23.9732 5.64114 23.7887 5.23993 23.4316L5.08902 23.2999C5.00766 23.5167 4.90518 23.7757 4.77786 23.9663C5.45358 25.337 7.45217 25.3849 8.09932 23.9744C7.93722 23.8092 7.81363 23.6335 7.69315 23.4577ZM7.52794 18.7121C7.20126 19.0407 6.85595 19.1357 6.51747 19.1649C6.41748 19.1829 6.31997 19.1953 6.22246 19.2071C5.89764 19.2475 5.57345 19.2872 5.14367 19.5847C4.93934 19.7263 4.80332 19.8971 4.73376 20.0959C4.66358 20.2977 4.65986 20.5343 4.71886 20.8026C4.72383 20.8281 4.72259 20.8554 4.71327 20.8821C4.68656 20.9554 4.60458 20.9933 4.53068 20.9666C4.4164 20.925 4.16984 20.7933 4.10835 20.9399C4.08786 21.0952 4.07543 21.3305 4.11643 21.5243C4.15928 21.7268 4.23567 21.8398 4.45242 21.7734L4.49093 21.7671C4.56918 21.7653 4.63439 21.8274 4.63564 21.9056C4.65116 22.5484 4.93685 22.7944 5.28341 23.0931L5.42874 23.2192C5.77716 23.5291 6.14483 23.6893 6.5038 23.6893C6.85346 23.6893 7.20374 23.5366 7.5298 23.2217L7.677 23.0826C8.04094 22.7404 8.30924 22.4882 8.25769 21.8746C8.24838 21.7585 8.37756 21.6777 8.47755 21.7442C8.51668 21.7696 8.56699 21.7951 8.61481 21.797C8.73467 21.8032 8.80051 21.3467 8.84212 21.2243C8.86758 21.1293 8.87069 21.0622 8.85764 21.0188C8.84336 20.9728 8.80237 20.9703 8.76014 20.974C8.68996 20.9809 8.60549 21.0163 8.52662 21.0747C8.49556 21.102 8.45333 21.1156 8.40923 21.1082C8.3908 21.105 8.37317 21.0982 8.35735 21.0883C8.34153 21.0783 8.32784 21.0653 8.31705 21.05C8.30626 21.0347 8.29859 21.0174 8.29448 20.9992C8.29037 20.9809 8.2899 20.962 8.2931 20.9436C8.42662 20.1629 8.36576 19.6537 8.19931 19.3071C8.05336 19.0034 7.82108 18.8189 7.56893 18.6811L7.52794 18.7121ZM24.2942 11.2873C23.9874 11.0302 23.9477 10.5706 24.2048 10.2638C24.4626 9.95695 24.9215 9.9172 25.2283 10.1743C25.3755 10.2979 25.491 10.3979 25.5774 10.4762C25.6823 10.5706 25.7929 10.6786 25.9134 10.7941C26.3543 11.2295 26.7611 11.6916 27.1232 12.1791C27.4896 12.6726 27.8184 13.1929 28.107 13.7355C28.2933 14.0926 28.1567 14.533 27.8026 14.7193C27.4455 14.9056 27.0046 14.769 26.8189 14.415C26.5692 13.9423 26.2804 13.4858 25.9556 13.053C25.6277 12.6151 25.273 12.2052 24.893 11.8332C24.806 11.7462 24.706 11.6549 24.5986 11.555C24.47 11.4394 24.3675 11.35 24.2942 11.2873ZM20.4318 27.9983C20.8125 27.8697 21.2243 28.0772 21.3529 28.4573C21.4821 28.838 21.2746 29.2498 20.8939 29.3783C20.2877 29.5833 19.6605 29.7404 19.0152 29.8429C18.378 29.9478 17.7296 30 17.0787 30C16.4148 30 15.7558 29.9453 15.1081 29.8379C14.4441 29.7274 13.8038 29.5646 13.1927 29.3547C12.812 29.2237 12.6076 28.8088 12.7387 28.4281C12.8697 28.048 13.2846 27.8437 13.6647 27.9747C14.2106 28.1604 14.7721 28.3051 15.3391 28.3995C15.8981 28.4914 16.4781 28.5411 17.0762 28.5411C17.6637 28.5411 18.2333 28.4939 18.7792 28.4051C19.3487 28.3157 19.8996 28.1765 20.4318 27.9983ZM17.024 16.3192C18.078 16.3459 18.9102 17.2222 18.8835 18.2755C18.8568 19.3288 17.9805 20.1617 16.9272 20.1344C15.8738 20.1077 15.041 19.2313 15.0677 18.178C15.0944 17.1247 15.9707 16.2918 17.024 16.3192Z" fill="white"/>
</svg>
