<svg width="1240" height="305" viewBox="0 0 1240 305" fill="none" xmlns="http://www.w3.org/2000/svg">
<rect width="1240" height="304.259" rx="19.1358" fill="#498240"/>
<mask id="mask0_172_230" style="mask-type:alpha" maskUnits="userSpaceOnUse" x="0" y="0" width="1240" height="305">
<rect width="1240" height="304.259" rx="19.1358" fill="#EF3E23"/>
</mask>
<g mask="url(#mask0_172_230)">
<path opacity="0.2" d="M122.582 -80.0982C148.523 -31.7376 121.776 34.3381 60.8839 67.0021C-0.00846578 99.6661 -69.8509 85.4029 -95.7925 37.0424C-121.734 -11.3182 -94.9873 -77.3939 -34.0949 -110.058C26.7974 -142.722 96.6399 -128.459 122.582 -80.0982Z" stroke="#F1F5F9" stroke-width="6.69753"/>
<path d="M1359.12 343.966C1359.12 402.043 1301.71 450.17 1229.48 450.17C1157.24 450.17 1099.83 402.043 1099.83 343.966C1099.83 285.89 1157.24 237.762 1229.48 237.762C1301.71 237.762 1359.12 285.89 1359.12 343.966Z" stroke="white" stroke-width="6.69753"/>
</g>
</svg>
