<svg width="31" height="30" viewBox="0 0 31 30" fill="none" xmlns="http://www.w3.org/2000/svg">
<path d="M14.6428 9.91748H16.6889C17.0715 9.91748 17.3844 10.231 17.3844 10.613V13.3112H20.0826C20.4652 13.3112 20.7781 13.6241 20.7781 14.0067V16.0528C20.7781 16.4354 20.4652 16.7483 20.0826 16.7483H17.3844V19.3868C17.3844 19.7694 17.0715 20.0823 16.6889 20.0823H14.6428C14.2602 20.0823 13.9473 19.7694 13.9473 19.3868V16.7483H11.2502C10.8676 16.7483 10.5547 16.4354 10.5547 16.0528V14.0056C10.5547 13.6235 10.8676 13.3101 11.2502 13.3101H13.9484V10.613C13.9484 10.231 14.2602 9.91748 14.6428 9.91748Z" fill="#D8453E"/>
<path d="M18.5716 2.54121C19.9972 2.87227 21.3313 3.4418 22.5296 4.20469C23.6528 3.3252 25.2817 3.40195 26.3159 4.43613C27.3571 5.47793 27.4286 7.12148 26.5298 8.24531C27.2926 9.46845 27.8418 10.8124 28.154 12.2197C29.5696 12.392 30.6665 13.5984 30.6665 15.0609C30.6665 16.5328 29.555 17.7451 28.1253 17.9051C27.7942 19.3307 27.2247 20.6648 26.4618 21.8631C27.3413 22.9863 27.2646 24.6152 26.2304 25.6494C25.1886 26.6906 23.545 26.7621 22.4212 25.8633C21.1981 26.6261 19.8541 27.1753 18.4468 27.4875C18.2745 28.9031 17.0681 30 15.6056 30C14.1337 30 12.9214 28.8885 12.7614 27.4594C11.3574 27.1328 10.019 26.5701 8.80342 25.7953C7.68018 26.6748 6.05127 26.598 5.01709 25.5639C3.97588 24.5221 3.90439 22.8785 4.80322 21.7547C4.0404 20.5315 3.49117 19.1876 3.179 17.7803C1.76338 17.6074 0.666504 16.4016 0.666504 14.9391C0.666504 13.4672 1.77803 12.2549 3.20713 12.0949C3.53345 10.6908 4.09616 9.35238 4.87119 8.13691C3.9917 7.01367 4.06846 5.38477 5.10264 4.35059C6.14443 3.30938 7.78799 3.23789 8.91182 4.13672C10.135 3.3739 11.4789 2.82466 12.8862 2.5125C13.0585 1.09688 14.2649 0 15.7274 0C17.1993 0 18.4116 1.11152 18.5716 2.54121ZM24.9718 15.4758L22.2747 15.467C22.2858 15.3129 22.2917 15.157 22.2917 15C22.2917 14.8564 22.2864 14.7141 22.2776 14.5729L24.9817 14.5816C25.1558 13.5492 25.8823 12.7049 26.8468 12.3627C26.5729 11.1971 26.1171 10.0818 25.4962 9.05801C24.5593 9.49277 23.4349 9.39199 22.5835 8.75684L20.6704 10.6582C20.4741 10.4326 20.2632 10.2205 20.0394 10.023L21.9577 8.11699C21.3513 7.26445 21.2675 6.1541 21.7069 5.23066C20.6894 4.59924 19.5787 4.13218 18.4157 3.84668C18.0601 4.81758 17.194 5.5418 16.1423 5.69473L16.1335 8.3918C15.9794 8.38066 15.8235 8.3748 15.6665 8.3748C15.5229 8.3748 15.3806 8.38008 15.2394 8.38887L15.2481 5.68477C14.2163 5.51016 13.3714 4.78418 13.0292 3.81973C11.8636 4.09361 10.7483 4.54939 9.72451 5.17031C10.1587 6.10781 10.0585 7.23164 9.42334 8.08301L11.3247 9.99609C11.0991 10.1924 10.887 10.4033 10.6901 10.6271L8.7835 8.70879C7.93096 9.31524 6.82061 9.39902 5.89658 8.95957C5.26559 9.97724 4.79874 11.0879 4.51318 12.2508C5.48408 12.6059 6.2083 13.4725 6.36123 14.5236L9.0583 14.5324C9.04717 14.6871 9.04131 14.843 9.04131 15C9.04131 15.1436 9.04658 15.2854 9.05537 15.4266L6.35127 15.4178C6.17725 16.4502 5.45068 17.2951 4.48623 17.6373C4.76397 18.8197 5.22451 19.9318 5.83682 20.942C6.77432 20.5078 7.89814 20.608 8.74951 21.2432L10.6626 19.3424C10.8589 19.5674 11.0698 19.7795 11.2942 19.977L9.37529 21.883C9.98174 22.7361 10.0655 23.8459 9.62607 24.7699C10.6437 25.4009 11.7544 25.8678 12.9173 26.1533C13.2724 25.1824 14.139 24.4582 15.1907 24.3053L15.1989 21.6082C15.3536 21.6193 15.5095 21.6252 15.6665 21.6252C15.8101 21.6252 15.9519 21.6199 16.0931 21.6111L16.0849 24.3152C17.1167 24.4893 17.9616 25.2158 18.3038 26.1803C19.4862 25.9025 20.5983 25.442 21.6085 24.8297C21.1737 23.8928 21.2745 22.7684 21.9097 21.917L20.0083 20.0039C20.2339 19.8076 20.446 19.5967 20.6435 19.3723L22.5495 21.2912C23.4021 20.6848 24.5124 20.601 25.4358 21.0404C26.0673 20.0229 26.5343 18.9122 26.8198 17.7492C25.8489 17.3936 25.1247 16.5275 24.9718 15.4758ZM7.12705 4.82988C7.97959 4.82988 8.671 5.52129 8.671 6.37441C8.671 7.22695 7.97959 7.91836 7.12705 7.91836C6.27393 7.91836 5.58252 7.22695 5.58252 6.37441C5.58252 5.52129 6.27393 4.82988 7.12705 4.82988ZM15.7274 1.31836C16.58 1.31836 17.2714 2.00977 17.2714 2.8623C17.2714 3.71543 16.58 4.40684 15.7274 4.40684C14.8743 4.40684 14.1829 3.71543 14.1829 2.8623C14.1829 2.00977 14.8743 1.31836 15.7274 1.31836ZM24.2921 4.91602C25.1452 4.91602 25.8366 5.60742 25.8366 6.46055C25.8366 7.31309 25.1452 8.00449 24.2921 8.00449C23.4396 8.00449 22.7481 7.31309 22.7481 6.46055C22.7481 5.60742 23.4396 4.91602 24.2921 4.91602ZM27.8042 13.5164C28.6567 13.5164 29.3481 14.2078 29.3481 15.0609C29.3481 15.9135 28.6567 16.6049 27.8042 16.6049C26.9511 16.6049 26.2603 15.9135 26.2603 15.0609C26.2603 14.2078 26.9511 13.5164 27.8042 13.5164ZM24.206 22.0816C25.0591 22.0816 25.7505 22.773 25.7505 23.6256C25.7505 24.4781 25.0591 25.1701 24.206 25.1701C23.3534 25.1701 22.662 24.4781 22.662 23.6256C22.662 22.773 23.3534 22.0816 24.206 22.0816ZM15.6056 25.5932C16.4587 25.5932 17.1501 26.2846 17.1501 27.1377C17.1501 27.9902 16.4587 28.6816 15.6056 28.6816C14.753 28.6816 14.0616 27.9902 14.0616 27.1377C14.0616 26.2846 14.753 25.5932 15.6056 25.5932ZM7.04092 21.9955C7.89346 21.9955 8.58486 22.6869 8.58486 23.5395C8.58486 24.3926 7.89346 25.084 7.04092 25.084C6.18838 25.084 5.49697 24.3926 5.49697 23.5395C5.49697 22.6869 6.18838 21.9955 7.04092 21.9955ZM3.52881 13.3951C4.38193 13.3951 5.07275 14.0865 5.07275 14.9396C5.07275 15.7922 4.38193 16.4836 3.52881 16.4836C2.67627 16.4836 1.98486 15.7922 1.98486 14.9396C1.98486 14.0865 2.67627 13.3951 3.52881 13.3951Z" fill="white"/>
</svg>
