<svg width="24" height="30" viewBox="0 0 24 30" fill="none" xmlns="http://www.w3.org/2000/svg">
<path fill-rule="evenodd" clip-rule="evenodd" d="M17.7051 16.5381C18.3203 17.7832 18.667 19.1846 18.667 20.6689C18.667 22.9761 17.8296 25.0903 16.4404 26.7188L14.3311 24.6094C15.188 23.5254 15.6982 22.1558 15.6982 20.6665C15.6982 17.1509 12.8491 14.3018 9.3335 14.3018C7.84424 14.3018 6.47461 14.812 5.39063 15.6689L3.28369 13.562C4.58252 12.4536 6.19141 11.6968 7.96143 11.4355L7.92969 11.4209L12.124 6.8335L9.56543 5.25391L6.604 8.07373C5.90576 8.73779 4.80225 8.71094 4.13818 8.0127C3.47412 7.31445 3.50098 6.21094 4.19922 5.54688L8.12988 1.8042L8.12744 1.80176C8.75244 1.20605 9.70947 1.16455 10.3784 1.66504L15.9033 5.07324C15.9766 5.11963 16.0474 5.16846 16.1133 5.22461L17.6514 6.04248C19.3164 6.92871 19.4556 8.48389 18.1982 9.8877L15.2588 13.1689L21.5234 12.7783V12.7759C22.4854 12.7148 23.3154 13.4497 23.3765 14.4116C23.3789 14.4482 23.3813 14.4873 23.3813 14.5239C23.3813 14.5972 23.3765 14.668 23.3667 14.7412L22.7124 24.0088C22.644 24.9707 21.8091 25.6934 20.8472 25.6274C19.8853 25.5591 19.1602 24.7241 19.2285 23.7622L19.7485 16.3867L17.7051 16.5381ZM19.4092 0C21.04 0 22.3633 1.3208 22.3633 2.9541C22.3633 4.58496 21.04 5.9082 19.4092 5.9082C17.7783 5.9082 16.4551 4.58496 16.4551 2.9541C16.4551 1.3208 17.7783 0 19.4092 0ZM14.4751 28.457C13.0005 29.4312 11.2329 30 9.3335 30C4.17725 30 0 25.8228 0 20.6665C0 18.7671 0.568848 16.9995 1.54297 15.5249L3.70605 17.688C3.23486 18.5767 2.96631 19.5898 2.96631 20.6665C2.96631 24.1821 5.81543 27.0312 9.33106 27.0312C10.4077 27.0312 11.4209 26.7627 12.3096 26.2915L14.4751 28.457Z" fill="#498240"/>
</svg>
