<svg width="34" height="32" viewBox="0 0 34 32" fill="none" xmlns="http://www.w3.org/2000/svg">
<path d="M8.89474 8.89474C13.2549 8.89474 16.7895 7.12744 16.7895 4.94737C16.7895 2.7673 13.2549 1 8.89474 1C4.53459 1 1 2.7673 1 4.94737C1 7.12744 4.53459 8.89474 8.89474 8.89474Z" stroke="#498240" stroke-width="2" stroke-linecap="round" stroke-linejoin="round"/>
<path d="M1 4.94727V10.4736C1 12.6533 4.53447 14.421 8.89474 14.421C13.255 14.421 16.7895 12.6533 16.7895 10.4736V4.94727" stroke="#498240" stroke-width="2" stroke-linecap="round" stroke-linejoin="round"/>
<path d="M1 10.4736V15.9999C1 18.1797 4.53447 19.9473 8.89474 19.9473C13.255 19.9473 16.7895 18.1797 16.7895 15.9999V10.4736" stroke="#498240" stroke-width="2" stroke-linecap="round" stroke-linejoin="round"/>
<path d="M1 16V21.5263C1 23.7061 4.53447 25.4737 8.89474 25.4737C13.255 25.4737 16.7895 23.7061 16.7895 21.5263V16" stroke="#498240" stroke-width="2" stroke-linecap="round" stroke-linejoin="round"/>
<path d="M1 21.5264V27.0527C1 29.2324 4.53447 31.0001 8.89474 31.0001C13.255 31.0001 16.7895 29.2324 16.7895 27.0527V21.5264" stroke="#498240" stroke-width="2" stroke-linecap="round" stroke-linejoin="round"/>
<path d="M24.6843 19.9475C29.0444 19.9475 32.579 18.1802 32.579 16.0001C32.579 13.82 29.0444 12.0527 24.6843 12.0527C20.3241 12.0527 16.7896 13.82 16.7896 16.0001C16.7896 18.1802 20.3241 19.9475 24.6843 19.9475Z" stroke="#498240" stroke-width="2" stroke-linecap="round" stroke-linejoin="round"/>
<path d="M16.7896 16V21.5263C16.7896 23.7061 20.324 25.4737 24.6843 25.4737C29.0446 25.4737 32.579 23.7061 32.579 21.5263V16" stroke="#498240" stroke-width="2" stroke-linecap="round" stroke-linejoin="round"/>
<path d="M16.7896 21.5264V27.0527C16.7896 29.2324 20.324 31.0001 24.6843 31.0001C29.0446 31.0001 32.579 29.2324 32.579 27.0527V21.5264" stroke="#498240" stroke-width="2" stroke-linecap="round" stroke-linejoin="round"/>
</svg>
