<svg width="39" height="30" viewBox="0 0 39 30" fill="none" xmlns="http://www.w3.org/2000/svg">
<mask id="path-1-inside-1_164_1299" fill="white">
<path fill-rule="evenodd" clip-rule="evenodd" d="M0 13.3835H7.74261V27.1599H0V13.3835ZM26.6174 6.38929C29.4269 6.38929 31.7064 8.66561 31.7064 11.4783C31.7064 14.2878 29.43 16.5673 26.6174 16.5673C23.8078 16.5673 21.5284 14.2909 21.5284 11.4783C21.5284 8.66873 23.8047 6.38929 26.6174 6.38929ZM17.6867 0C20.1096 0 22.0772 1.9645 22.0772 4.39049C22.0772 6.81337 20.1127 8.78099 17.6867 8.78099C15.2638 8.78099 13.2962 6.81649 13.2962 4.39049C13.2962 1.96761 15.2607 0 17.6867 0ZM18.1326 5.32285C18.1326 5.17941 18.0983 5.07027 18.0266 4.9892C17.9549 4.90812 17.8333 4.83329 17.6586 4.76157C17.484 4.68985 17.3219 4.61813 17.1753 4.54641C17.0288 4.47157 16.8978 4.38738 16.7918 4.29071C16.6826 4.19404 16.6016 4.08179 16.5454 3.95706C16.4862 3.82921 16.4612 3.67641 16.4612 3.49556C16.4612 3.19309 16.5641 2.94363 16.7668 2.7503C16.9695 2.55696 17.2408 2.43847 17.5807 2.40729V2.00192H18.0079V2.41664C18.3353 2.46342 18.5941 2.5975 18.7812 2.8189C18.9683 3.04029 19.0619 3.32093 19.0619 3.65771H18.1482C18.1482 3.47061 18.1108 3.32717 18.0391 3.22739C17.9673 3.1276 17.8644 3.07771 17.7335 3.07771C17.615 3.07771 17.5214 3.11513 17.4591 3.18685C17.3936 3.26169 17.3624 3.36459 17.3624 3.49244C17.3624 3.6234 17.3998 3.72943 17.4747 3.80738C17.5526 3.88534 17.6711 3.96018 17.8364 4.0319C18.0016 4.10362 18.1607 4.17533 18.3072 4.25017C18.4538 4.32813 18.5816 4.41232 18.6877 4.50899C18.7968 4.60565 18.881 4.72103 18.9402 4.84888C18.9995 4.97672 19.0338 5.12952 19.0338 5.3135C19.0338 5.61908 18.9371 5.86854 18.7407 6.06188C18.5442 6.25521 18.2823 6.36746 17.9486 6.39865V6.77907H17.5246V6.39865C17.1348 6.35499 16.8354 6.22402 16.6265 5.99951C16.4176 5.77188 16.3116 5.47564 16.3116 5.10457H17.219C17.219 5.31038 17.2626 5.46317 17.3531 5.57231C17.4435 5.67833 17.5713 5.73446 17.7366 5.73446C17.8582 5.73446 17.9518 5.69704 18.0235 5.62532C18.0921 5.55048 18.1295 5.4507 18.1326 5.32285ZM27.1319 12.5572C27.1319 12.3919 27.0913 12.2641 27.0103 12.1705C26.9292 12.077 26.7889 11.9897 26.5831 11.9055C26.3804 11.8244 26.1933 11.7371 26.0218 11.656C25.8503 11.5718 25.7006 11.472 25.5759 11.3598C25.4511 11.2475 25.3576 11.1197 25.289 10.9731C25.2204 10.8266 25.1923 10.6488 25.1923 10.4399C25.1923 10.0875 25.3108 9.80066 25.5478 9.57614C25.7817 9.35163 26.0966 9.21754 26.4895 9.18012V8.70927H26.9853V9.1926C27.3626 9.24872 27.662 9.40464 27.8803 9.66033C28.0985 9.91603 28.2077 10.2403 28.2077 10.6332H27.1537C27.1537 10.4149 27.1101 10.2528 27.029 10.1343C26.9479 10.0189 26.8263 9.95969 26.6735 9.95969C26.5363 9.95969 26.4303 10.0033 26.3554 10.0875C26.2806 10.1717 26.2432 10.2933 26.2432 10.443C26.2432 10.5958 26.2868 10.7174 26.3741 10.8078C26.4615 10.8983 26.5987 10.9856 26.792 11.0667C26.9853 11.1477 27.1662 11.235 27.3377 11.3192C27.5092 11.4066 27.6557 11.5095 27.7805 11.6186C27.9052 11.7309 28.0019 11.8618 28.0736 12.0115C28.1453 12.1612 28.1796 12.3389 28.1796 12.5478C28.1796 12.9033 28.0674 13.1933 27.8397 13.4147C27.6152 13.6361 27.3096 13.7702 26.9198 13.8045V14.2442H26.424V13.8014C25.9719 13.7515 25.6258 13.5987 25.3825 13.3367C25.1424 13.0748 25.0208 12.7287 25.0208 12.2984H26.0717C26.0717 12.5354 26.1247 12.7131 26.2276 12.8378C26.3305 12.9594 26.4802 13.0249 26.6735 13.0249C26.8138 13.0249 26.923 12.9813 27.0072 12.9002C27.0882 12.8191 27.1288 12.7037 27.1319 12.5572ZM26.6174 7.39025C28.8719 7.39025 30.7023 9.21754 30.7023 11.4752C30.7023 13.7296 28.875 15.5601 26.6174 15.5601C24.3629 15.5601 22.5325 13.7328 22.5325 11.4752C22.5325 9.21754 24.3629 7.39025 26.6174 7.39025ZM9.30174 26.0031V14.4905H14.4811C16.6764 14.8834 18.8716 16.0746 21.0669 17.456H25.0894C26.9105 17.5651 27.8647 19.4111 26.0935 20.6241C24.6841 21.6594 22.8225 21.6001 20.9141 21.4286C19.5982 21.3631 19.5421 23.1312 20.9141 23.1374C21.3912 23.1748 21.9088 23.0626 22.361 23.0626C24.7433 23.0594 26.7016 22.6042 27.9021 20.7239L28.5039 19.3176L34.4878 16.3521C37.4813 15.3667 39.608 18.4974 37.4034 20.6771C33.069 23.8297 28.6255 26.424 24.0791 28.5195C20.7769 30.5277 17.4747 30.4591 14.1756 28.5195L9.30174 26.0031Z"/>
</mask>
<path fill-rule="evenodd" clip-rule="evenodd" d="M0 13.3835H7.74261V27.1599H0V13.3835ZM26.6174 6.38929C29.4269 6.38929 31.7064 8.66561 31.7064 11.4783C31.7064 14.2878 29.43 16.5673 26.6174 16.5673C23.8078 16.5673 21.5284 14.2909 21.5284 11.4783C21.5284 8.66873 23.8047 6.38929 26.6174 6.38929ZM17.6867 0C20.1096 0 22.0772 1.9645 22.0772 4.39049C22.0772 6.81337 20.1127 8.78099 17.6867 8.78099C15.2638 8.78099 13.2962 6.81649 13.2962 4.39049C13.2962 1.96761 15.2607 0 17.6867 0ZM18.1326 5.32285C18.1326 5.17941 18.0983 5.07027 18.0266 4.9892C17.9549 4.90812 17.8333 4.83329 17.6586 4.76157C17.484 4.68985 17.3219 4.61813 17.1753 4.54641C17.0288 4.47157 16.8978 4.38738 16.7918 4.29071C16.6826 4.19404 16.6016 4.08179 16.5454 3.95706C16.4862 3.82921 16.4612 3.67641 16.4612 3.49556C16.4612 3.19309 16.5641 2.94363 16.7668 2.7503C16.9695 2.55696 17.2408 2.43847 17.5807 2.40729V2.00192H18.0079V2.41664C18.3353 2.46342 18.5941 2.5975 18.7812 2.8189C18.9683 3.04029 19.0619 3.32093 19.0619 3.65771H18.1482C18.1482 3.47061 18.1108 3.32717 18.0391 3.22739C17.9673 3.1276 17.8644 3.07771 17.7335 3.07771C17.615 3.07771 17.5214 3.11513 17.4591 3.18685C17.3936 3.26169 17.3624 3.36459 17.3624 3.49244C17.3624 3.6234 17.3998 3.72943 17.4747 3.80738C17.5526 3.88534 17.6711 3.96018 17.8364 4.0319C18.0016 4.10362 18.1607 4.17533 18.3072 4.25017C18.4538 4.32813 18.5816 4.41232 18.6877 4.50899C18.7968 4.60565 18.881 4.72103 18.9402 4.84888C18.9995 4.97672 19.0338 5.12952 19.0338 5.3135C19.0338 5.61908 18.9371 5.86854 18.7407 6.06188C18.5442 6.25521 18.2823 6.36746 17.9486 6.39865V6.77907H17.5246V6.39865C17.1348 6.35499 16.8354 6.22402 16.6265 5.99951C16.4176 5.77188 16.3116 5.47564 16.3116 5.10457H17.219C17.219 5.31038 17.2626 5.46317 17.3531 5.57231C17.4435 5.67833 17.5713 5.73446 17.7366 5.73446C17.8582 5.73446 17.9518 5.69704 18.0235 5.62532C18.0921 5.55048 18.1295 5.4507 18.1326 5.32285ZM27.1319 12.5572C27.1319 12.3919 27.0913 12.2641 27.0103 12.1705C26.9292 12.077 26.7889 11.9897 26.5831 11.9055C26.3804 11.8244 26.1933 11.7371 26.0218 11.656C25.8503 11.5718 25.7006 11.472 25.5759 11.3598C25.4511 11.2475 25.3576 11.1197 25.289 10.9731C25.2204 10.8266 25.1923 10.6488 25.1923 10.4399C25.1923 10.0875 25.3108 9.80066 25.5478 9.57614C25.7817 9.35163 26.0966 9.21754 26.4895 9.18012V8.70927H26.9853V9.1926C27.3626 9.24872 27.662 9.40464 27.8803 9.66033C28.0985 9.91603 28.2077 10.2403 28.2077 10.6332H27.1537C27.1537 10.4149 27.1101 10.2528 27.029 10.1343C26.9479 10.0189 26.8263 9.95969 26.6735 9.95969C26.5363 9.95969 26.4303 10.0033 26.3554 10.0875C26.2806 10.1717 26.2432 10.2933 26.2432 10.443C26.2432 10.5958 26.2868 10.7174 26.3741 10.8078C26.4615 10.8983 26.5987 10.9856 26.792 11.0667C26.9853 11.1477 27.1662 11.235 27.3377 11.3192C27.5092 11.4066 27.6557 11.5095 27.7805 11.6186C27.9052 11.7309 28.0019 11.8618 28.0736 12.0115C28.1453 12.1612 28.1796 12.3389 28.1796 12.5478C28.1796 12.9033 28.0674 13.1933 27.8397 13.4147C27.6152 13.6361 27.3096 13.7702 26.9198 13.8045V14.2442H26.424V13.8014C25.9719 13.7515 25.6258 13.5987 25.3825 13.3367C25.1424 13.0748 25.0208 12.7287 25.0208 12.2984H26.0717C26.0717 12.5354 26.1247 12.7131 26.2276 12.8378C26.3305 12.9594 26.4802 13.0249 26.6735 13.0249C26.8138 13.0249 26.923 12.9813 27.0072 12.9002C27.0882 12.8191 27.1288 12.7037 27.1319 12.5572ZM26.6174 7.39025C28.8719 7.39025 30.7023 9.21754 30.7023 11.4752C30.7023 13.7296 28.875 15.5601 26.6174 15.5601C24.3629 15.5601 22.5325 13.7328 22.5325 11.4752C22.5325 9.21754 24.3629 7.39025 26.6174 7.39025ZM9.30174 26.0031V14.4905H14.4811C16.6764 14.8834 18.8716 16.0746 21.0669 17.456H25.0894C26.9105 17.5651 27.8647 19.4111 26.0935 20.6241C24.6841 21.6594 22.8225 21.6001 20.9141 21.4286C19.5982 21.3631 19.5421 23.1312 20.9141 23.1374C21.3912 23.1748 21.9088 23.0626 22.361 23.0626C24.7433 23.0594 26.7016 22.6042 27.9021 20.7239L28.5039 19.3176L34.4878 16.3521C37.4813 15.3667 39.608 18.4974 37.4034 20.6771C33.069 23.8297 28.6255 26.424 24.0791 28.5195C20.7769 30.5277 17.4747 30.4591 14.1756 28.5195L9.30174 26.0031Z" stroke="#498240" stroke-width="4" mask="url(#path-1-inside-1_164_1299)"/>
</svg>
