<svg width="23" height="30" viewBox="0 0 23 30" fill="none" xmlns="http://www.w3.org/2000/svg">
<path fill-rule="evenodd" clip-rule="evenodd" d="M11.2736 0.00215418C11.8034 -0.0198177 12.2209 0.163281 12.6432 0.431826C13.1779 0.771169 13.7809 1.44253 14.5255 1.86732C15.5728 2.46544 17.5112 1.64028 18.5024 3.11483C19.081 3.97417 19.1078 4.64798 19.1517 5.31446C19.1981 6.0322 19.3251 6.6938 20.0599 7.66544C21.2781 9.27671 21.532 10.3484 20.9046 11.4641C20.4774 12.2258 19.5765 12.6482 19.369 13.1315C18.9247 14.1569 19.4154 14.9308 18.81 16.127C18.3876 16.9571 17.7382 17.5039 16.8716 17.7823C16.1416 18.0166 15.4092 17.6773 14.8233 17.9239C13.7955 18.356 13.0387 19.3593 12.2209 19.6132C11.9059 19.7109 11.591 19.7597 11.2761 19.7573C10.9611 19.7597 10.6462 19.7109 10.3313 19.6132C9.51344 19.3593 8.75663 18.356 7.72883 17.9239C7.14292 17.6773 6.41052 18.0191 5.68057 17.7823C4.8139 17.5039 4.16451 16.9571 3.74216 16.127C3.13428 14.9308 3.62498 14.1569 3.1831 13.1315C2.97559 12.6482 2.07475 12.2258 1.64752 11.4641C1.01521 10.3484 1.26911 9.27671 2.48733 7.66789C3.22216 6.69624 3.34911 6.03465 3.3955 5.3169C3.43944 4.65042 3.4663 3.97662 4.04489 3.11727C5.0385 1.64272 6.97691 2.46788 8.02179 1.86976C8.76639 1.44497 9.3694 0.77361 9.90405 0.434267C10.324 0.163281 10.7439 -0.022259 11.2736 0.00215418ZM11.2736 6.33981L12.3625 9.00084L15.231 9.21324L13.0363 11.0711L13.7198 13.8639L11.2736 12.3503L8.82743 13.8639L9.51099 11.0711L7.31625 9.21324L10.1848 9.00084L11.2736 6.33981ZM21.7176 27.6037L18.8979 27.0983L17.499 29.6031C16.4834 30.8604 15.8389 28.7926 15.5557 28.0724L12.8336 22.9383C13.461 22.721 14.2179 22.0936 14.9942 21.3881C16.5444 21.4198 17.9897 21.1513 19.0517 19.7988L22.179 25.841L22.45 26.4221C22.6648 27.1764 22.5525 27.6745 21.7176 27.6037ZM0.827233 27.6037L3.64939 27.0983L5.04827 29.6031C6.06386 30.8604 6.70836 28.7926 6.99156 28.0724L9.71362 22.9383C9.08621 22.721 8.3294 22.0936 7.55306 21.3881C6.00282 21.4198 4.55756 21.1513 3.49559 19.7988L0.365824 25.841L0.0948384 26.4221C-0.119997 27.1764 -0.00769686 27.6745 0.827233 27.6037ZM11.2443 3.93023C14.6133 3.93023 17.3452 6.66206 17.3452 10.0311C17.3452 13.4001 14.6133 16.1319 11.2443 16.1319C7.87531 16.1319 5.14348 13.4001 5.14348 10.0311C5.14592 6.66206 7.87531 3.93023 11.2443 3.93023Z" fill="#498240"/>
</svg>
