<svg width="24" height="30" viewBox="0 0 24 30" fill="none" xmlns="http://www.w3.org/2000/svg">
<path d="M23.025 18.3676C23.0291 18.5728 22.8896 18.7475 22.6979 18.7938C22.4505 18.8758 22.1791 18.9984 21.9212 19.0048C21.7208 19.0089 21.5496 18.8747 21.498 18.6906L21.0742 17.486C21.0062 17.292 20.9394 17.1021 20.8737 16.9081L20.0678 18.4315C19.9793 18.5968 19.6381 18.7803 19.4957 18.8753C19.2975 19.0066 19.0308 18.9532 18.8995 18.7557C18.8661 18.7053 18.8444 18.6508 18.8351 18.5957L18.3591 16.2193L17.7067 15.7768L16.192 15.54C16.2454 15.6203 16.2999 15.7006 16.3532 15.7791C16.6311 16.1883 16.8902 16.5705 16.9822 16.9679C17.1299 17.6068 16.9013 18.1484 15.8409 18.5546C15.8726 18.5728 15.9036 18.5921 15.9335 18.6144C16.3568 18.9239 16.467 19.3917 15.5848 20.5974C15.3614 20.9016 15.1698 21.1701 15.0092 21.404C14.8831 21.588 14.7653 21.7645 14.6575 21.9345L14.8931 23.4163C14.9248 23.6162 14.8808 23.8114 14.7559 24.0019C14.5572 24.302 14.2682 24.4198 14.0232 24.6607C13.9898 24.6941 13.9588 24.7275 13.9312 24.7598L14.0338 25.1824C14.0725 25.3401 14.018 25.4983 13.9066 25.6003C13.8351 25.6648 13.7284 25.7053 13.6416 25.7451C13.6135 25.8676 13.5707 25.9878 13.5156 26.1068C13.3275 26.5107 12.9716 26.9169 12.5695 27.115C12.1223 27.336 11.6106 27.2897 11.1205 27.3002C10.8831 27.3049 10.6862 27.1167 10.6815 26.8793C10.6774 26.6847 10.6493 26.4796 10.5977 26.2615C10.4752 25.741 10.2302 25.2738 10.0901 24.7551C9.96638 24.2973 9.8978 23.6777 10.1692 23.2609C10.2091 23.2023 10.2108 22.8923 10.2096 22.819C10.2032 22.5452 10.0801 22.2721 9.94176 22.0411C9.81632 21.8325 9.5631 21.4257 9.55841 21.1859C9.54317 20.4837 9.29932 20.3348 8.96521 20.3418C8.4529 20.3524 7.93942 20.5071 7.41011 20.5183C7.18444 20.523 6.95994 20.4245 6.73837 20.2246C6.40484 19.9233 6.07248 19.3682 5.85677 18.9667C5.66686 18.6144 5.68151 18.5365 5.6733 18.1472C5.63638 16.9544 5.60238 15.8266 6.73544 14.9708C7.19792 14.2827 7.6182 13.8337 8.12934 13.5429C8.66099 13.2393 9.2577 13.125 10.0672 13.108C10.3046 13.1027 10.501 13.2914 10.5062 13.5288L10.5191 14.1385L11.0396 14.353L11.0467 14.3178C11.1411 13.8219 11.6762 13.9837 11.9892 14.0904C12.3661 14.2176 12.5742 14.4339 13.0226 14.3366C13.1926 14.2991 13.1551 14.2528 13.1727 14.0798L12.6627 14.1367C12.5344 14.1502 12.413 14.1056 12.3251 14.0242C12.2489 13.9532 12.219 13.8641 12.1604 13.7809C11.9681 13.5077 11.6422 13.3501 11.246 13.1584C10.76 12.9233 10.1885 12.6467 9.56779 12.0798C7.52793 12.8524 6.87377 12.9667 6.69909 12.5113C6.59651 12.2451 6.73133 12.0271 6.91246 11.7334C7.07541 11.4685 7.30812 11.0922 7.3005 10.7434C7.29857 10.6545 7.32426 10.5672 7.37402 10.4935C7.42378 10.4198 7.49516 10.3633 7.57834 10.3319L9.29112 9.50482C8.88314 9.50482 8.72605 8.80025 8.66099 8.51303C8.56955 8.10975 9.07248 7.93097 9.33977 7.74222C9.52148 7.61327 9.73895 7.44797 9.99158 7.24633L10.0074 7.23343C8.42711 7.5142 6.93063 8.15488 5.6182 9.07633C3.28527 10.7147 1.63228 13.2997 1.13169 16.108C1.00332 16.8278 0.947052 17.5699 0.963465 18.3336C0.979291 19.0968 1.06722 19.8354 1.22548 20.5493C1.23427 20.588 1.24307 20.6267 1.25244 20.6654L3.26123 21.5746C3.44705 21.6584 3.51211 21.8202 3.51563 22.006C3.53439 22.5411 3.39722 22.9485 3.25654 23.3665C3.14752 23.6894 3.03615 24.02 3.02501 24.4063C3.02442 24.4473 3.01797 24.4866 3.00625 24.5235C3.80754 25.6543 4.83743 26.6373 6.00449 27.3846C7.21961 28.163 8.58655 28.7146 10.008 28.9679C11.4547 29.2258 13.0156 29.1924 14.45 28.8735C15.8597 28.5605 17.202 27.9514 18.3831 27.122C19.5308 26.316 20.5279 25.2762 21.2846 24.0951C22.0625 22.8817 22.6152 21.5112 22.8679 20.0916C22.9951 19.3747 23.0513 18.6361 23.0355 17.8764C23.0279 18.0376 23.0215 18.2053 23.025 18.3676ZM17.4951 2.91574C18.7559 2.91574 19.777 3.93742 19.777 5.19826C19.777 6.45852 18.7559 7.47962 17.4951 7.47962C16.2348 7.47962 15.2131 6.45852 15.2131 5.19826C15.2131 3.93742 16.2348 2.91574 17.4951 2.91574ZM20.1334 11.4949C19.556 12.1273 18.882 12.6971 18.1229 13.1654C17.9877 13.2652 17.8256 13.3219 17.6577 13.328C17.4898 13.334 17.3241 13.2892 17.1821 13.1994C16.0566 12.4837 15.1088 11.6185 14.362 10.6807C13.3245 9.37938 12.6698 7.92745 12.4435 6.52417C12.2073 5.06286 12.4335 3.64961 13.1692 2.49135C13.4623 2.03063 13.8368 1.61093 14.294 1.24634C15.3257 0.424533 16.515 -0.00922971 17.7026 0.000148933C18.8585 0.00952758 19.998 0.436842 20.9769 1.32957C21.3198 1.64317 21.6117 2.00308 21.8503 2.39698C22.6358 3.6924 22.8116 5.32956 22.4722 6.97376C22.144 8.56578 21.3327 10.1801 20.1334 11.4949ZM17.6281 12.4972C21.6264 10.0728 23.1692 4.45501 20.4171 1.94446C18.7395 0.413395 16.5414 0.518319 14.811 1.89698C11.7776 4.31374 13.1375 9.64433 17.6281 12.4972ZM21.7764 11.2997C22.644 12.5552 23.2811 13.9737 23.6135 15.4638C23.7841 16.2334 23.8784 17.0283 23.896 17.8471C23.9136 18.6666 23.8526 19.4649 23.7143 20.241C23.4411 21.7744 22.8462 23.2469 22.0068 24.557C21.1885 25.8342 20.1164 26.9526 18.8749 27.8242C17.6024 28.7181 16.1545 29.3752 14.6352 29.7135C13.0895 30.057 11.4171 30.0927 9.85794 29.8149C8.32394 29.5411 6.85208 28.9468 5.542 28.1068C4.26416 27.2879 3.14634 26.217 2.27472 24.9749C1.3814 23.7023 0.723137 22.2545 0.386092 20.7352C0.214931 19.9655 0.120559 19.1707 0.10356 18.3512C0.085975 17.5318 0.14635 16.7334 0.285271 15.9573C0.82513 12.9274 2.6059 10.1426 5.12407 8.37469C6.94763 7.09451 9.0121 6.3618 11.2419 6.22405C11.253 6.31315 11.2659 6.40283 11.2806 6.49193C11.3292 6.79498 11.3949 7.10037 11.4758 7.40576C11.2905 7.40928 11.2823 7.40987 11.1082 7.50776C10.9529 7.59509 10.7583 7.73167 10.525 7.91807C10.2747 8.11678 10.0443 8.29146 9.83332 8.44093C9.71022 8.52827 9.59768 8.60388 9.4951 8.66895C9.65512 8.70295 9.7876 8.78501 9.89838 9.26918C9.96931 9.57575 10.1182 10.057 9.75008 10.2346L8.14047 11.0113C8.07131 11.4843 7.82277 11.8876 7.6393 12.1854C7.63578 12.1912 7.6311 12.1959 7.62641 12.2C7.82981 12.0716 8.31691 11.6455 9.48807 11.193C9.568 11.1565 9.6572 11.1453 9.74366 11.161C9.83013 11.1767 9.90969 11.2186 9.97165 11.2809C10.5631 11.8741 11.1375 12.1519 11.6176 12.3847C12.1205 12.6279 12.5373 12.8296 12.8409 13.2551L13.5338 13.1783C13.6709 13.1525 13.8069 13.1877 13.9107 13.2832C13.9534 13.3224 13.9877 13.3698 14.0116 13.4226C14.0355 13.4754 14.0484 13.5325 14.0496 13.5904C14.0561 13.8946 14.0473 14.4608 13.8784 14.7363C13.7301 14.9773 13.4851 15.115 13.2067 15.176C12.6158 15.3073 12.3151 15.1502 11.8011 14.9362C11.7806 15.0458 11.7706 15.1261 11.6956 15.2193C11.6375 15.2914 11.5576 15.3428 11.4679 15.3658C11.3783 15.3889 11.2836 15.3823 11.1979 15.3471L9.96052 14.8366C9.7917 14.7815 9.66743 14.6244 9.66333 14.4362L9.65395 13.9902C9.2026 14.0288 8.85149 14.1185 8.5502 14.2903C8.15747 14.5142 7.81515 14.8929 7.41715 15.4925C7.38725 15.5423 7.34739 15.5869 7.29757 15.622C6.4699 16.2164 6.49804 17.1426 6.52793 18.1238C6.53379 18.3219 6.5379 18.4005 6.53907 18.4603C6.53966 18.4802 6.56193 18.4737 6.60941 18.5611C6.77295 18.8665 7.06076 19.3612 7.31164 19.588C7.3638 19.6349 7.39018 19.6584 7.39077 19.6584C7.91363 19.6472 8.42594 19.4937 8.94586 19.4819C9.77998 19.4649 10.3867 19.7615 10.4166 21.1683C10.4166 21.1701 10.6686 21.5886 10.6774 21.6027C11.0004 22.1431 11.1393 22.6724 11.0391 23.2996C10.9476 23.8647 10.7255 23.8231 10.9177 24.5329C11.0602 25.0581 11.3046 25.5247 11.433 26.0663C11.4623 26.1912 11.4857 26.3131 11.5033 26.4315C11.7278 26.4268 11.9857 26.4479 12.1897 26.3471C12.4922 26.1971 12.7958 25.7721 12.8251 25.4321C12.8345 25.234 12.9482 25.1209 13.1176 25.0417C13.069 24.8436 12.984 24.6408 13.1018 24.4479C13.2876 24.1425 13.5596 23.8981 13.8515 23.6976C13.9388 23.6373 13.9986 23.5851 14.0314 23.5411C14.0437 23.5206 14.0437 23.5394 14.0391 23.5089L13.7876 21.9327C13.7647 21.8266 13.7806 21.7123 13.8427 21.6132C13.9629 21.421 14.1158 21.1889 14.3022 20.918C14.4834 20.6554 14.6797 20.3794 14.8908 20.091C15.3544 19.4573 15.4412 19.3178 15.4271 19.3073C15.3972 19.285 15.3251 19.2574 15.2495 19.2287C15.0191 19.1402 14.7712 19.0435 14.5965 18.8032C14.4001 18.53 14.3245 18.081 14.7682 17.9784C15.9289 17.71 16.2114 17.445 16.1451 17.1601C16.0895 16.9181 15.8738 16.6009 15.6434 16.2615C15.4142 15.9227 15.1715 15.5652 15.0056 15.1725C14.9652 15.0927 14.9506 15.0024 14.964 14.914C14.9998 14.6795 15.219 14.5183 15.4535 14.554L17.7788 14.9181C17.8931 14.9362 18.0033 14.945 18.1029 15.0124L18.9529 15.5875C19.0081 15.6178 19.0559 15.6599 19.0931 15.7107C19.1302 15.7616 19.1558 15.8199 19.168 15.8817L19.5185 17.6349L20.566 15.6555C20.7219 15.3008 21.2395 15.3161 21.3667 15.6895C21.6322 16.4696 21.8966 17.2393 22.1698 18.0159C22.1791 17.7791 22.1967 17.4708 22.2301 17.1625C22.2635 16.8483 22.3134 16.5347 22.3855 16.2938C22.4382 16.1168 22.5086 15.9655 22.5994 15.8524C22.5273 15.445 22.4312 15.0447 22.311 14.6514C22.1674 14.1771 21.988 13.7158 21.7741 13.2668C21.5884 12.8772 21.3801 12.4986 21.1504 12.1332C21.372 11.8636 21.5812 11.5851 21.7764 11.2997ZM2.3896 23.258C2.40719 23.2029 2.42536 23.1484 2.44412 23.0939C2.53849 22.8149 2.63052 22.5411 2.65397 22.2393L1.74189 21.8272C1.91598 22.3078 2.14107 22.809 2.3896 23.258Z" fill="white"/>
</svg>
